{"accessors":[{"bufferView":2,"byteOffset":0,"componentType":5126,"count":5670,"max":[1,1,1,1],"min":[0.006584956776350737,0.006584956776350737,0.006584956776350737,1],"name":"accessor_color_m0-PolyPaper15_-117326","type":"VEC4"},{"bufferView":2,"byteOffset":90720,"componentType":5126,"count":9606,"max":[1,1,1,1],"min":[0.00005692175545846112,0.006584956776350737,0,1],"name":"accessor_color_m1-PolyPaper9_-113866","type":"VEC4"},{"bufferView":2,"byteOffset":244416,"componentType":5126,"count":9752,"max":[0.9406006932258606,0.7372047901153564,0.8277258276939392,1],"min":[0.2195197343826294,0.1219857111573219,0.2932161688804626,1],"name":"accessor_color_m2-PolyPaper3_-107848","type":"VEC4"},{"bufferView":2,"byteOffset":400448,"componentType":5126,"count":9420,"max":[0.9406006932258606,0.5054324865341187,0.6387794613838196,1],"min":[0.8751375675201416,0.1219857111573219,0.2932161688804626,1],"name":"accessor_color_m3-PolyPaper7_-107850","type":"VEC4"},{"bufferView":2,"byteOffset":551168,"componentType":5126,"count":9900,"max":[0.8751375675201416,0.1219857111573219,0.2932161688804626,1],"min":[0.8751375675201416,0.1219857111573219,0.2932161688804626,1],"name":"accessor_color_m4-PolyPaper7_-107852","type":"VEC4"},{"bufferView":2,"byteOffset":709568,"componentType":5126,"count":9502,"max":[0.8751375675201416,0.4368127584457397,0.3392233550548553,1],"min":[0,0.1219857111573219,0.07805658876895905,1],"name":"accessor_color_m5-PolyPaper7_-107854","type":"VEC4"},{"bufferView":2,"byteOffset":861600,"componentType":5126,"count":1224,"max":[0.6800203323364258,0.6800203323364258,0.6800203323364258,0.2509804],"min":[0.6800203323364258,0.6800203323364258,0.6800203323364258,0.2509804],"name":"accessor_color_m6-PolyGlass24_-117328","type":"VEC4"},{"bufferView":2,"byteOffset":881184,"componentType":5126,"count":24,"max":[1,1,1,1],"min":[1,1,1,1],"name":"accessor_color_m7-PolyGem25_-107858","type":"VEC4"},{"bufferView":0,"byteOffset":0,"componentType":5123,"count":8844,"max":[5669],"min":[0],"name":"accessor_indices_0_m0-PolyPaper15_-117326","type":"SCALAR"},{"bufferView":0,"byteOffset":17688,"componentType":5123,"count":15264,"max":[9605],"min":[0],"name":"accessor_indices_0_m1-PolyPaper9_-113866","type":"SCALAR"},{"bufferView":0,"byteOffset":48216,"componentType":5123,"count":13992,"max":[9751],"min":[0],"name":"accessor_indices_0_m2-PolyPaper3_-107848","type":"SCALAR"},{"bufferView":0,"byteOffset":76200,"componentType":5123,"count":13932,"max":[9419],"min":[0],"name":"accessor_indices_0_m3-PolyPaper7_-107850","type":"SCALAR"},{"bufferView":0,"byteOffset":104064,"componentType":5123,"count":15120,"max":[9899],"min":[0],"name":"accessor_indices_0_m4-PolyPaper7_-107852","type":"SCALAR"},{"bufferView":0,"byteOffset":134304,"componentType":5123,"count":14508,"max":[9501],"min":[0],"name":"accessor_indices_0_m5-PolyPaper7_-107854","type":"SCALAR"},{"bufferView":0,"byteOffset":163320,"componentType":5123,"count":1860,"max":[1223],"min":[0],"name":"accessor_indices_0_m6-PolyGlass24_-117328","type":"SCALAR"},{"bufferView":0,"byteOffset":167040,"componentType":5123,"count":36,"max":[23],"min":[0],"name":"accessor_indices_0_m7-PolyGem25_-107858","type":"SCALAR"},{"bufferView":1,"byteOffset":68040,"componentType":5126,"count":5670,"max":[0.9989667,0.999994,0.9999127],"min":[-0.9989668,-0.9999941,-0.9999127],"name":"accessor_normal_m0-PolyPaper15_-117326","type":"VEC3"},{"bufferView":1,"byteOffset":251352,"componentType":5126,"count":9606,"max":[0.9987608,0.9998543,0.999632],"min":[-0.9987606,-0.9998531,-0.9999657],"name":"accessor_normal_m1-PolyPaper9_-113866","type":"VEC3"},{"bufferView":1,"byteOffset":483648,"componentType":5126,"count":9752,"max":[0.9985994,0.9994441,0.9994233],"min":[-0.9985994,-0.9994441,-0.9994233],"name":"accessor_normal_m2-PolyPaper3_-107848","type":"VEC3"},{"bufferView":1,"byteOffset":713712,"componentType":5126,"count":9420,"max":[0.9999802,0.9880037,0.998363],"min":[-0.9999815,-0.9891059,-0.9983631],"name":"accessor_normal_m3-PolyPaper7_-107850","type":"VEC3"},{"bufferView":1,"byteOffset":945552,"componentType":5126,"count":9900,"max":[0.9987087,0.9963709,0.9944206],"min":[-0.9990309,-0.9967139,-0.9948992],"name":"accessor_normal_m4-PolyPaper7_-107852","type":"VEC3"},{"bufferView":1,"byteOffset":1178376,"componentType":5126,"count":9502,"max":[0.9982936,0.9994454,0.9988756],"min":[-0.9995068,-0.9987864,-0.9996346],"name":"accessor_normal_m5-PolyPaper7_-107854","type":"VEC3"},{"bufferView":1,"byteOffset":1307088,"componentType":5126,"count":1224,"max":[0.9857679,0.987107,0.9655182],"min":[-0.9857678,-0.9871071,-0.9655181],"name":"accessor_normal_m6-PolyGlass24_-117328","type":"VEC3"},{"bufferView":1,"byteOffset":1322064,"componentType":5126,"count":24,"max":[0.9967133,0.9983522,0.99625],"min":[-0.9967133,-0.9983522,-0.99625],"name":"accessor_normal_m7-PolyGem25_-107858","type":"VEC3"},{"bufferView":1,"byteOffset":0,"componentType":5126,"count":5670,"max":[-0.4298972,1.869471,0.5109784],"min":[-0.8568538,1.347057,0.161221],"name":"accessor_position_m0-PolyPaper15_-117326","type":"VEC3"},{"bufferView":1,"byteOffset":136080,"componentType":5126,"count":9606,"max":[-0.4392147,1.752243,0.6542286],"min":[-0.8148433,0.9392886,-0.02283115],"name":"accessor_position_m1-PolyPaper9_-113866","type":"VEC3"},{"bufferView":1,"byteOffset":366624,"componentType":5126,"count":9752,"max":[-0.5005704,1.729365,0.4461307],"min":[-0.6871544,0.9738566,0.210781],"name":"accessor_position_m2-PolyPaper3_-107848","type":"VEC3"},{"bufferView":1,"byteOffset":600672,"componentType":5126,"count":9420,"max":[-0.5167015,1.714817,0.4352666],"min":[-0.5856175,1.587713,0.2217657],"name":"accessor_position_m3-PolyPaper7_-107850","type":"VEC3"},{"bufferView":1,"byteOffset":826752,"componentType":5126,"count":9900,"max":[-0.5087173,1.644257,0.4396158],"min":[-0.5918075,1.590828,0.3845257],"name":"accessor_position_m4-PolyPaper7_-107852","type":"VEC3"},{"bufferView":1,"byteOffset":1064352,"componentType":5126,"count":9502,"max":[-0.4669869,1.643317,0.4598359],"min":[-0.7498732,1.449475,0.1938552],"name":"accessor_position_m5-PolyPaper7_-107854","type":"VEC3"},{"bufferView":1,"byteOffset":1292400,"componentType":5126,"count":1224,"max":[-0.5436409,1.66748,0.4485241],"min":[-0.8419265,1.481529,0.2626981],"name":"accessor_position_m6-PolyGlass24_-117328","type":"VEC3"},{"bufferView":1,"byteOffset":1321776,"componentType":5126,"count":24,"max":[-0.5918005,1.510711,0.2414751],"min":[-0.6249601,1.478365,0.2080249],"name":"accessor_position_m7-PolyGem25_-107858","type":"VEC3"}],"asset":{"copyright":"Unknown","extras":{"GOOGLE_processor_version":294144208},"generator":"glTF 1-to-2 Upgrader for Google Blocks","version":"2.0"},"bufferViews":[{"buffer":0,"byteLength":167112,"byteOffset":0,"name":"ushortBufferView","target":34963},{"buffer":0,"byteLength":1322352,"byteOffset":167112,"byteStride":12,"name":"vec3BufferView","target":34962},{"buffer":0,"byteLength":881568,"byteOffset":1489464,"byteStride":16,"name":"vec4BufferView","target":34962}],"buffers":[{"byteLength":2371032,"name":"model","uri":"data:application/octet-stream;base64,"}],"cameras":[{"perspective":{"yfov":0.7853981633974483,"znear":0.1000000014901161},"type":"perspective"}],"extensions":{"KHR_lights_punctual":{"lights":[{"color":[1,0.9333333333333333,0.8666666666666667],"intensity":0.25,"name":"headLight","type":"directional"},{"color":[1,0.9333333333333333,0.8666666666666667],"intensity":0.324999988079071,"name":"keyLight","type":"directional"}]}},"extensionsUsed":["GOOGLE_backgrounds","GOOGLE_camera_settings","KHR_lights_punctual"],"extras":{"GOOGLE_initial_camera_motion":{"motionPath":"FULL_ROTATION"},"GOOGLE_lighting_rig":{"disableShadows":false}},"materials":[{"alphaMode":"OPAQUE","doubleSided":false,"name":"BlocksPaper","pbrMetallicRoughness":{"baseColorFactor":[1,1,1,1],"metallicFactor":0,"roughnessFactor":0.6}},{"alphaMode":"BLEND","doubleSided":false,"name":"BlocksGlass","pbrMetallicRoughness":{"baseColorFactor":[0.2,0.2,1,0.3],"metallicFactor":1,"roughnessFactor":0.4}},{"alphaMode":"OPAQUE","doubleSided":true,"name":"BlocksGem","pbrMetallicRoughness":{"baseColorFactor":[1,0.4,1,1],"metallicFactor":0,"roughnessFactor":0.1}}],"meshes":[{"name":"mesh_m0-PolyPaper15_-117326","primitives":[{"attributes":{"COLOR_0":0,"NORMAL":16,"POSITION":24},"indices":8,"material":0,"mode":4}]},{"name":"mesh_m1-PolyPaper9_-113866","primitives":[{"attributes":{"COLOR_0":1,"NORMAL":17,"POSITION":25},"indices":9,"material":0,"mode":4}]},{"name":"mesh_m2-PolyPaper3_-107848","primitives":[{"attributes":{"COLOR_0":2,"NORMAL":18,"POSITION":26},"indices":10,"material":0,"mode":4}]},{"name":"mesh_m3-PolyPaper7_-107850","primitives":[{"attributes":{"COLOR_0":3,"NORMAL":19,"POSITION":27},"indices":11,"material":0,"mode":4}]},{"name":"mesh_m4-PolyPaper7_-107852","primitives":[{"attributes":{"COLOR_0":4,"NORMAL":20,"POSITION":28},"indices":12,"material":0,"mode":4}]},{"name":"mesh_m5-PolyPaper7_-107854","primitives":[{"attributes":{"COLOR_0":5,"NORMAL":21,"POSITION":29},"indices":13,"material":0,"mode":4}]},{"name":"mesh_m6-PolyGlass24_-117328","primitives":[{"attributes":{"COLOR_0":6,"NORMAL":22,"POSITION":30},"indices":14,"material":1,"mode":4}]},{"name":"mesh_m7-PolyGem25_-107858","primitives":[{"attributes":{"COLOR_0":7,"NORMAL":23,"POSITION":31},"indices":15,"material":2,"mode":4}]}],"nodes":[{"mesh":4,"name":"node_MeshObject-1380067584-PolyPaper7"},{"mesh":3,"name":"node_MeshObject-1898787648-PolyPaper7"},{"mesh":6,"name":"node_MeshObject-417140736-PolyGlass24"},{"mesh":5,"name":"node_MeshObject-861347520-PolyPaper7"},{"mesh":0,"name":"node_MeshObject-935860800-PolyPaper15"},{"mesh":7,"name":"node_MeshObject176092608-PolyGem25"},{"mesh":2,"name":"node_MeshObject1877459584-PolyPaper3"},{"mesh":1,"name":"node_MeshObject246786112-PolyPaper9"},{"children":[9]},{"children":[10],"extras":{"isTransformNode":1},"translation":[-0.6345734195736074,1.429443173507488,0.3233772670632883]},{"children":[4,7,6,1,0,3,2,5],"translation":[0.6345734195736074,-1.429443173507488,-0.3233772670632883]},{"camera":0,"children":[12],"rotation":[-0.03008558844206786,-0.6236344967219918,-0.02403073477493187,0.7807671840264417],"translation":[-2.631423473358154,1.725759625434875,0.8153320550918579]},{"extensions":{"KHR_lights_punctual":{"light":0}},"extras":{"isHeadLight":1},"name":"headLightNode","translation":[-0.7453561116607459,0.3726780558303729,0.3726780558303729]},{"extensions":{"KHR_lights_punctual":{"light":1}},"extras":{"isKeyLight":1},"name":"keyLightNode","rotation":[-0.7505326882858236,-0.3752663441429118,0,0.5439447166468927],"scale":[0,0,0.7528096727773533],"translation":[-1.335971551558541,3.069582784310572,-0.4020319624151398]}],"scene":0,"scenes":[{"extensions":{"GOOGLE_backgrounds":{"color":[0.08235294117647059,0.396078431372549,0.7529411764705882]},"GOOGLE_camera_settings":{}},"extras":{"GOOGLE_camera_index":{"cameraIndex":0,"nodeIndex":11},"GOOGLE_geometry_data":{"stats":{"centroid":[-0.5831618787811873,1.563963438755865,0.3507777103622135],"radius":0.7453561116607459,"stdev":0.2143392340933691},"visualCenterPoint":[-0.6345734195736074,1.429443173507488,0.3233772670632883]},"GOOGLE_hemi_light":{"groundColor":[0.08235294117647059,0.396078431372549,0.7529411764705882]}},"name":"defaultScene","nodes":[8,11,13]}]}